<mxfile host="app.diagrams.net" modified="2023-06-14T18:38:39.931Z" agent="Mozilla/5.0 (X11; Ubuntu; Linux x86_64; rv:109.0) Gecko/20100101 Firefox/113.0" version="21.4.0" etag="23w7xgZgDzbh7Al0nbVo" type="github">
  <diagram name="Page-1" id="luvuMpZttpmvOePXZDza">
    <mxGraphModel>
      <root>
        <mxCell id="0" />
        <mxCell id="1" parent="0" />
      </root>
    </mxGraphModel>
  </diagram>
</mxfile>
